<svg xmlns="http://www.w3.org/2000/svg" width="139" height="55" viewBox="0 0 139 55" fill="none">
<path d="M19.35 32.65V41H15.1C7.93333 41 4.35 37.45 4.35 30.35V21.1H0.9V12.95H4.35V6.15H14.2V12.95H19.3V21.1H14.2V30.5C14.2 31.2667 14.3667 31.8167 14.7 32.15C15.0667 32.4833 15.6667 32.65 16.5 32.65H19.35ZM28.7949 10.35C27.0616 10.35 25.6616 9.88333 24.5949 8.95C23.5616 7.98333 23.0449 6.78333 23.0449 5.35C23.0449 3.88333 23.5616 2.66667 24.5949 1.7C25.6616 0.733331 27.0616 0.249997 28.7949 0.249997C30.4949 0.249997 31.8616 0.733331 32.8949 1.7C33.9616 2.66667 34.4949 3.88333 34.4949 5.35C34.4949 6.78333 33.9616 7.98333 32.8949 8.95C31.8616 9.88333 30.4949 10.35 28.7949 10.35ZM33.6449 12.95V41H23.8449V12.95H33.6449ZM52.6758 31.75L57.9258 12.95H68.3758L58.7258 41H46.5258L36.8758 12.95H47.3258L52.6758 31.75ZM76.6465 10.35C74.9132 10.35 73.5132 9.88333 72.4465 8.95C71.4132 7.98333 70.8965 6.78333 70.8965 5.35C70.8965 3.88333 71.4132 2.66667 72.4465 1.7C73.5132 0.733331 74.9132 0.249997 76.6465 0.249997C78.3465 0.249997 79.7132 0.733331 80.7465 1.7C81.8132 2.66667 82.3465 3.88333 82.3465 5.35C82.3465 6.78333 81.8132 7.98333 80.7465 8.95C79.7132 9.88333 78.3465 10.35 76.6465 10.35ZM81.4965 12.95V41H71.6965V12.95H81.4965ZM103.627 32.65V41H99.3773C92.2107 41 88.6273 37.45 88.6273 30.35V21.1H85.1773V12.95H88.6273V6.15H98.4773V12.95H103.577V21.1H98.4773V30.5C98.4773 31.2667 98.644 31.8167 98.9773 32.15C99.344 32.4833 99.944 32.65 100.777 32.65H103.627ZM138.322 12.95L120.522 54.35H109.872L116.572 39.8L105.072 12.95H115.972L121.872 28.85L127.572 12.95H138.322Z" fill="url(#paint0_linear_2_26)"/>
<defs>
<linearGradient id="paint0_linear_2_26" x1="-2.68067" y1="23" x2="65.3177" y2="23.7437" gradientUnits="userSpaceOnUse">
<stop stop-color="#B03DE2"/>
<stop offset="1" stop-color="#6344F7"/>
</linearGradient>
</defs>
</svg>